<svg xmlns="http://www.w3.org/2000/svg" width="209" height="189" viewBox="0 0 209 189">
    <g fill="none" fill-rule="evenodd" transform="translate(-16 -16.943)">
        <path fill="#E7E8F1" fill-rule="nonzero" d="M223.9 119.4c-1.82 0-3.3-1.48-3.3-3.3a1.1 1.1 0 1 0-2.2 0c0 1.82-1.48 3.3-3.3 3.3a1.1 1.1 0 1 0 0 2.2c1.82 0 3.3 1.48 3.3 3.3a1.1 1.1 0 1 0 2.2 0c0-1.82 1.48-3.3 3.3-3.3a1.1 1.1 0 1 0 0-2.2zM25.9 56.4c-1.82 0-3.3-1.48-3.3-3.3a1.1 1.1 0 1 0-2.2 0c0 1.82-1.48 3.3-3.3 3.3a1.1 1.1 0 1 0 0 2.2c1.82 0 3.3 1.48 3.3 3.3a1.1 1.1 0 1 0 2.2 0c0-1.82 1.48-3.3 3.3-3.3a1.1 1.1 0 1 0 0-2.2z"/>
        <circle cx="153" cy="46" r="4" stroke="#2BD2C9" stroke-width="2.4"/>
        <path fill="#F3F4F9" d="M189.857 99.488c-2.322-2.971-5.02-5.667-7.952-8.124-2.892-2.423-5.976-4.642-9.088-6.722-3.07-2.05-6.136-3.997-9.047-5.9a69.073 69.073 0 0 1-6.232-4.558 47.82 47.82 0 0 1-5.106-4.87 42.647 42.647 0 0 1-4.07-5.311 53.18 53.18 0 0 1-3.235-5.764 84.054 84.054 0 0 1-2.668-6.145 196.456 196.456 0 0 1-2.367-6.436c-.89-2.532-1.86-5.007-2.967-7.347-1.096-2.317-2.346-4.485-3.806-6.438-1.438-1.934-3.067-3.682-4.82-5.268-5.163-4.658-11.38-7.932-19.278-8.718C95.288 16.5 80.802 23.34 70.107 32.965l-.04.036a66.849 66.849 0 0 0-2.89 2.764C47.095 56.174 33.906 84.262 37.73 114.02c3.01 23.41 16.788 45.057 36.586 60.117 22.647 17.226 54.777 25.52 83.17 15.412 8.482-3.02 16.396-7.809 23.11-13.854 18.216-16.403 27.576-42.046 15.341-66.605a56.642 56.642 0 0 0-6.08-9.602z"/>
        <path fill="#8D43EF" fill-rule="nonzero" d="M118.9 31.4c-1.82 0-3.3-1.48-3.3-3.3a1.1 1.1 0 1 0-2.2 0c0 1.82-1.48 3.3-3.3 3.3a1.1 1.1 0 1 0 0 2.2c1.82 0 3.3 1.48 3.3 3.3a1.1 1.1 0 1 0 2.2 0c0-1.82 1.48-3.3 3.3-3.3a1.1 1.1 0 1 0 0-2.2z"/>
        <circle cx="196.5" cy="176.5" r="2.5" stroke="#2BD2C9" stroke-width="1.6"/>
        <path fill="#F3F4F9" d="M191 73.5c0 5.8 4.701 10.5 10.5 10.5S212 79.3 212 73.5c0-5.799-4.701-10.5-10.5-10.5S191 67.701 191 73.5M31 167.5a6.5 6.5 0 1 0 13 0 6.5 6.5 0 0 0-13 0"/>
        <circle cx="56" cy="103" r="3" stroke="#2BD2C9" stroke-width="2.4"/>
        <g fill-rule="nonzero">
            <path fill="#FFF" d="M150.368 163H88.632c-2.007 0-3.632-1.615-3.632-3.609V83.61C85 81.615 86.625 80 88.632 80h43.579L154 101.652v57.74c0 1.993-1.625 3.608-3.632 3.608z"/>
            <path fill="#E7E8F1" d="M132.21 80v18.043c0 1.994 1.626 3.61 3.632 3.61H154L132.21 80z"/>
        </g>
        <g stroke="#F3F4F9" stroke-linecap="round" stroke-linejoin="round" stroke-width="2.4">
            <path d="M63 204.5h16.485M87.722 204.5h47.848M141.152 204.5H189"/>
        </g>
        <g fill-rule="nonzero">
            <path fill="#E7E8F1" d="M133.792 135.015h-18.125a1.212 1.212 0 0 1-1.209-1.215c0-.67.542-1.214 1.209-1.214h18.125c.667 0 1.208.544 1.208 1.214 0 .67-.541 1.215-1.208 1.215z"/>
            <path fill="#F3F4F9" d="M126.542 144.729h-10.875a1.212 1.212 0 0 1-1.209-1.214c0-.67.542-1.215 1.209-1.215h10.875c.667 0 1.208.544 1.208 1.215 0 .67-.541 1.214-1.208 1.214zM128.958 125.3h-13.291a1.212 1.212 0 0 1-1.209-1.214c0-.67.542-1.214 1.209-1.214h13.291c.667 0 1.209.544 1.209 1.214 0 .67-.542 1.214-1.209 1.214z"/>
            <path fill="#E7E8F1" d="M133.792 115.586h-18.125a1.212 1.212 0 0 1-1.209-1.214c0-.67.542-1.214 1.209-1.214h18.125c.667 0 1.208.544 1.208 1.214 0 .67-.541 1.214-1.208 1.214z"/>
            <path fill="#F3F4F9" d="M108.417 126.515a2.425 2.425 0 0 1-2.417-2.429 2.425 2.425 0 0 1 2.417-2.428 2.425 2.425 0 0 1 2.416 2.428 2.425 2.425 0 0 1-2.416 2.429z"/>
            <path fill="#E7E8F1" d="M108.417 136.229A2.425 2.425 0 0 1 106 133.8a2.425 2.425 0 0 1 2.417-2.428 2.425 2.425 0 0 1 2.416 2.428 2.425 2.425 0 0 1-2.416 2.429z"/>
            <path fill="#F3F4F9" d="M108.417 145.943a2.425 2.425 0 0 1-2.417-2.428 2.425 2.425 0 0 1 2.417-2.429 2.425 2.425 0 0 1 2.416 2.429 2.425 2.425 0 0 1-2.416 2.428z"/>
            <path fill="#E7E8F1" d="M108.417 116.8a2.425 2.425 0 0 1-2.417-2.428 2.425 2.425 0 0 1 2.417-2.429 2.425 2.425 0 0 1 2.416 2.429 2.425 2.425 0 0 1-2.416 2.428z"/>
        </g>
    </g>
</svg>
